<svg xmlns="http://www.w3.org/2000/svg" width="292.272" height="855.68" viewBox="0 0 292.272 855.68">
  <defs>
    <style>
      .cls-1 {
        fill: #333e56;
        stroke: rgba(0,0,0,0);
        stroke-miterlimit: 10;
      }
    </style>
  </defs>
  <path id="합치기_3" data-name="합치기 3" class="cls-1" d="M-2511.126-617.478A18.1,18.1,0,0,1-2529-635.8v-436.128a18.1,18.1,0,0,1,17.871-18.32h110.394v-46.166h-2.169a7.084,7.084,0,0,1-7.084-7.084v-10.94a.77.77,0,0,1,.772-.77h11.324v2.553h6.12v-7.469h-19.372a2.6,2.6,0,0,1-2.6-2.6v-63.032a2.6,2.6,0,0,1,2.6-2.6h63.031a2.6,2.6,0,0,1,2.6,2.6v63.032a2.6,2.6,0,0,1-2.6,2.6h-17.829v7.469h4.577v2.41h-4.578a2.6,2.6,0,0,1-2.6,2.554h-20.626a2.6,2.6,0,0,1-2.6-2.554h-6.12v3.132a2.794,2.794,0,0,0,2.794,2.794h30.938a2.8,2.8,0,0,0,2.794-2.794v-8.1h11.325a.772.772,0,0,1,.772.77v10.94a7.085,7.085,0,0,1-7.085,7.084h-2.169v46.166H-2255.6a18.1,18.1,0,0,1,17.871,18.32V-635.8a18.1,18.1,0,0,1-17.871,18.322Zm92.917-456.3v13.8a1.613,1.613,0,0,0,1.593,1.633h62.87a1.613,1.613,0,0,0,1.592-1.633v-13.8a1.613,1.613,0,0,0-1.592-1.633h-4.773v3.905a6.312,6.312,0,0,1-6.312,6.313h-29.589a6.312,6.312,0,0,1-6.313-6.313v-3.905h-15.884A1.613,1.613,0,0,0-2418.209-1073.776Zm93.861,5.2v2.866a1.614,1.614,0,0,0,1.594,1.634h36.147a1.614,1.614,0,0,0,1.594-1.634v-2.866a1.614,1.614,0,0,0-1.594-1.633h-36.147A1.614,1.614,0,0,0-2324.348-1068.577Zm-165.055,0v2.866a1.614,1.614,0,0,0,1.593,1.634h36.148a1.614,1.614,0,0,0,1.593-1.634v-2.866a1.613,1.613,0,0,0-1.593-1.633h-36.148A1.614,1.614,0,0,0-2489.4-1068.577Zm135.632-159.785h-53.588l-53.587-242.236h53.587l27.22,123.046,26.9-124.606h53.587l-52.622,243.8Z" transform="translate(2529.497 1472.658)"/>
</svg>
